<svg id="Layer_1" data-name="Layer 1" xmlns="http://www.w3.org/2000/svg" viewBox="0 0 282 29"><defs><style>.cls-1{fill:#003a70;}.cls-2{fill:#e38100;}</style></defs><title>Artboard 1</title><path class="cls-1" d="M162.25,3.32l-2.17.75a6.73,6.73,0,0,0-4.94-1.93A6.55,6.55,0,0,0,151,3.33,3.72,3.72,0,0,0,149.5,6.4,3.74,3.74,0,0,0,151,9.52a6.65,6.65,0,0,0,4.15,1.18,6.57,6.57,0,0,0,4.94-2l2,1.08a9,9,0,0,1-7,3,9,9,0,0,1-5.85-1.8A5.66,5.66,0,0,1,147,6.41a5.67,5.67,0,0,1,2.54-4.78,9.73,9.73,0,0,1,12.67,1.69"/><path class="cls-1" d="M179.86,12.5h-2.6l-1.39-2.6h-8.13l-1.39,2.6h-2.6L170.34.41h2.93Zm-5.17-4.72-2.87-5.36-2.9,5.36Z"/><path class="cls-1" d="M192,.41a4.37,4.37,0,0,1,3.07,1,3.59,3.59,0,0,1,1.14,2.79A3.47,3.47,0,0,1,195,7.06a5.19,5.19,0,0,1-3.41,1h-7V12.5h-2.36V.41Zm-.36,5.53q2.14,0,2.15-1.65t-2.28-1.75h-6.92v3.4Z"/><rect class="cls-1" x="198.63" y="0.41" width="2.36" height="12.1"/><polygon class="cls-1" points="217.47 2.53 211.69 2.53 211.69 12.5 209.33 12.5 209.33 2.53 203.54 2.53 203.54 0.41 217.47 0.41 217.47 2.53"/><path class="cls-1" d="M234.33,12.5h-2.6l-1.39-2.6h-8.13l-1.39,2.6h-2.6L224.81.41h2.93Zm-5.17-4.72-2.87-5.36-2.9,5.36Z"/><polygon class="cls-1" points="248.35 12.5 236.65 12.5 236.65 0.41 239.01 0.41 239.01 10.38 248.35 10.38 248.35 12.5"/><path class="cls-1" d="M162.08,28.6h-2.6L158.09,26H150l-1.39,2.6H146l6.59-12.1h2.93Zm-5.17-4.72L154,18.52l-2.9,5.36Z"/><polygon class="cls-1" points="178.5 28.6 174.98 28.6 166.76 18.51 166.76 28.6 164.4 28.6 164.4 16.51 167.91 16.51 176.14 26.6 176.14 16.51 178.5 16.51 178.5 28.6"/><path class="cls-1" d="M196.93,28.6h-2.6L192.94,26h-8.13l-1.39,2.6h-2.6l6.59-12.1h2.93Zm-5.17-4.72-2.87-5.36L186,23.88Z"/><polygon class="cls-1" points="210.96 28.6 199.25 28.6 199.25 16.51 201.62 16.51 201.62 26.48 210.96 26.48 210.96 28.6"/><polygon class="cls-1" points="227.64 16.51 220.75 23.84 220.75 28.6 218.4 28.6 218.4 23.84 211.55 16.51 214.43 16.51 219.6 22.03 224.78 16.51 227.64 16.51"/><polygon class="cls-1" points="242.16 18.63 236.38 18.63 236.38 28.6 234.01 28.6 234.01 18.63 228.23 18.63 228.23 16.51 242.16 16.51 242.16 18.63"/><rect class="cls-1" x="244.71" y="16.51" width="2.36" height="12.1"/><path class="cls-1" d="M265.68,19.42l-2.16.75a6.73,6.73,0,0,0-4.94-1.93,6.54,6.54,0,0,0-4.11,1.19,3.89,3.89,0,0,0,0,6.19,6.64,6.64,0,0,0,4.15,1.18,6.57,6.57,0,0,0,4.94-2l2,1.08a10,10,0,0,1-12.87,1.21,5.82,5.82,0,0,1,.31-9.39,9.72,9.72,0,0,1,12.67,1.69"/><path class="cls-1" d="M279.95,19.5a10.87,10.87,0,0,0-5.13-1.24q-4,0-4,1.44c0,.56.5.93,1.52,1.1l4.13.38a10.57,10.57,0,0,1,4.23,1.06,2.81,2.81,0,0,1,1.4,2.58,3.34,3.34,0,0,1-1.74,3,9.79,9.79,0,0,1-5,1.06,12,12,0,0,1-7.46-2.13l1.28-1.67a10.44,10.44,0,0,0,6.14,1.75,7.73,7.73,0,0,0,3.17-.52q1.12-.52,1.12-1.39t-1.38-1.36a11.67,11.67,0,0,0-2.38-.29q-2.52-.12-3.09-.18a7,7,0,0,1-3.3-1,2.5,2.5,0,0,1-1.06-2.18A3.09,3.09,0,0,1,270,17.2a9.39,9.39,0,0,1,4.77-1A11.35,11.35,0,0,1,281.4,18Z"/><path class="cls-1" d="M32.28,28.94H26.14L18.95,18.85H5.31V28.94H0V1.48H22.14a9.93,9.93,0,0,1,7,2.37,8.17,8.17,0,0,1,2.59,6.34q0,6.83-6.83,8.35ZM21.34,14q4.87,0,4.87-3.75,0-4-5.18-4H5.31V14Z"/><path class="cls-1" d="M108.81,28.94h-5.9L99.75,23H81.3l-3.16,5.89h-5.9l15-27.46h6.65ZM97.08,18.22,90.55,6.06,84,18.22Z"/><polygon class="cls-1" points="140.65 28.94 114.08 28.94 114.08 1.48 119.44 1.48 119.44 24.12 140.65 24.12 140.65 28.94"/><rect class="cls-2" x="37.41" y="22.56" width="29.51" height="6.32"/><rect class="cls-2" x="37.41" y="1.48" width="25.29" height="6.32"/><rect class="cls-2" x="37.41" y="12.02" width="20.37" height="6.32"/></svg>